PathFileType	4	(X/Y/Z)	S01_0004_Gait_markers.trc
DataRate	CameraRate	NumFrames	NumMarkers	Units	OrigDataRate	OrigDataStartFrame	OrigNumFrames
250.000000	250.000000	4	54	mm	250.000000	40	320
Frame#	Time	HEAD_ANT			R_HEAD			L_HEAD			C7			R_BACK			L_BACK			STERNUM			R_ACROMION			R_HUM_PROX			R_HUM_ANT			R_HUM_POST			R_ELBOW_LAT			R_ELBOW_MED			R_FOREARM			R_WIRST_LAT			R_WRITS_MED			R_HAND			L_ACROMION			L_HUM_PROX			L_HUM_ANT			L_HUM_POST			L_ELBOW_LAT			L_ELBOW_MED			L_FOREARM			L_WRIST_LAT			L_WIRST_MED			L_HAND			R_ILIAC			SACRUM			L_ILIAC			R_GTROCH			R_THIGH__1			R_THIGH_2			R_THIGH_3			R_THIGH_4			R_SHANK_1			R_SHANK_2			R_SHANK_3			R_SHANK_4			R_HEEL			R_FOOT_LAT			R_FOOT_MED			L_GTROCH			L_THIGH_1			L_THIGH_2			L_THIGH_3			L_THIGH_4			L_SHANK_1			L_SHANK_2			L_SHANK_3			L_SHANK_4			L_HEEL			L_FOOT_LAT			L_FOOT_MED			
		X1	Y1	Z1	X2	Y2	Z2	X3	Y3	Z3	X4	Y4	Z4	X5	Y5	Z5	X6	Y6	Z6	X7	Y7	Z7	X8	Y8	Z8	X9	Y9	Z9	X10	Y10	Z10	X11	Y11	Z11	X12	Y12	Z12	X13	Y13	Z13	X14	Y14	Z14	X15	Y15	Z15	X16	Y16	Z16	X17	Y17	Z17	X18	Y18	Z18	X19	Y19	Z19	X20	Y20	Z20	X21	Y21	Z21	X22	Y22	Z22	X23	Y23	Z23	X24	Y24	Z24	X25	Y25	Z25	X26	Y26	Z26	X27	Y27	Z27	X28	Y28	Z28	X29	Y29	Z29	X30	Y30	Z30	X31	Y31	Z31	X32	Y32	Z32	X33	Y33	Z33	X34	Y34	Z34	X35	Y35	Z35	X36	Y36	Z36	X37	Y37	Z37	X38	Y38	Z38	X39	Y39	Z39	X40	Y40	Z40	X41	Y41	Z41	X42	Y42	Z42	X43	Y43	Z43	X44	Y44	Z44	X45	Y45	Z45	X46	Y46	Z46	X47	Y47	Z47	X48	Y48	Z48	X49	Y49	Z49	X50	Y50	Z50	X51	Y51	Z51	X52	Y52	Z52	X53	Y53	Z53	X54	Y54	Z54	

41	0.16	377.7855834960938	297.3992614746094	1716.463134765625	317.7486877441406	222.3845672607422	1665.275268554688	319.7342224121094	369.9121704101562	1670.579956054688	182.1016845703125	306.7917785644531	1496.015014648438	109.776123046875	252.4470825195312	1296.0439453125	117.537712097168	390.5787963867188	1304.515380859375	361.3500671386719	303.1691589355469	1336.446166992188	252.336669921875	133.7288513183594	1440.954833984375	209.6112518310547	49.79839324951172	1278.7197265625	269.4277038574219	45.90217971801758	1192.30322265625	148.0300598144531	41.85166549682617	1196.031005859375	195.5335693359375	35.83123016357422	1089.54150390625	167.9735260009766	115.1329727172852	1089.068359375	285.2279663085938	38.85860443115234	901.0202026367188	318.1875305175781	83.07399749755859	833.064208984375	251.4536285400391	40.55643844604492	814.4924926757812	314.8617553710938	29.73287963867188	742.6126098632812	271.7799987792969	472.1083679199219	1460.583251953125	255.5957641601562	573.4719848632812	1296.739013671875	318.2525634765625	575.4876098632812	1216.915161132812	197.0638885498047	598.7207641601562	1218.955810546875	259.2149963378906	610.6670532226562	1115.73486328125	207.1272277832031	554.6217651367188	1108.260620117188	378.2271423339844	591.9114990234375	947.6535034179688	415.4927368164062	540.545654296875	889.7067260742188	370.3099365234375	603.3787841796875	864.8844604492188	451.128662109375	592.2034912109375	815.7633666992188	275.5893859863281	148.1015014648438	1054.862670898438	143.6258392333984	308.8963012695312	1017.754516601562	263.1541137695312	489.4227905273438	1043.122802734375	258.1585083007812	130.6717681884766	902.4658203125	375.6597595214844	173.0773468017578	638.6490478515625	424.2803955078125	177.6630554199219	670.9066772460938	455.50048828125	219.2581481933594	577.6762084960938	394.4216918945312	198.8165435791016	562.0298461914062	418.4838562011719	203.0627593994141	342.2777709960938	470.8816833496094	229.6425628662109	326.6649169921875	469.3219909667969	249.9377899169922	242.5877685546875	409.1377563476562	226.2236328125	243.1400299072266	364.5214233398438	312.0548706054688	39.42638778686523	532.8961181640625	239.3771362304688	20.99753570556641	579.2286987304688	343.1321105957031	32.41923522949219	212.8296203613281	491.9215087890625	928.5577392578125	260.4189147949219	503.3546142578125	638.3414916992188	208.649169921875	507.5694885253906	667.2015991210938	183.2889709472656	488.1037902832031	565.5736083984375	246.9595031738281	489.8975524902344	558.4807739257812	58.85673904418945	474.87158203125	339.7186889648438	4.002770900726318	474.7499389648438	366.273193359375	-58.35203552246094	454.0948791503906	307.7919616699219	-9.366737365722656	449.8212280273438	266.5308227539062	-204.6197662353516	381.9682006835938	221.9110412597656	-157.2972259521484	393.3154602050781	40.89837265014648	-116.9388427734375	300.1034545898438	58.70545196533203	
42	0.164	383.4574279785156	297.1098937988281	1717.16162109375	323.5325927734375	222.2065887451172	1666.0322265625	325.3810424804688	369.7460021972656	1671.239868164062	187.8785858154297	306.498291015625	1496.533813476562	115.8991394042969	252.0141906738281	1296.703247070312	123.2168273925781	390.3696594238281	1305.390747070312	367.1162719726562	303.1264343261719	1337.214965820312	258.3988037109375	133.4715881347656	1441.611938476562	216.2272491455078	49.28455352783203	1279.3408203125	276.1670837402344	45.83901596069336	1192.890991210938	154.69873046875	41.16357803344727	1196.423828125	202.1931457519531	35.42557907104492	1090.237670898438	174.6991119384766	114.5831985473633	1089.734375	292.5394897460938	39.20831680297852	901.7662963867188	325.2926330566406	83.96323394775391	833.7850341796875	258.77392578125	40.91940307617188	815.2139892578125	322.7596435546875	30.49295616149902	743.5795288085938	277.1539916992188	471.8942565917969	1461.173217773438	260.6519165039062	573.5245971679688	1297.534301757812	323.2516174316406	575.5324096679688	1217.665893554688	202.0278625488281	598.276123046875	1219.8330078125	264.9519958496094	609.7274169921875	1115.854614257812	211.8556976318359	554.4959716796875	1109.007568359375	382.2764892578125	592.3270263671875	947.686767578125	419.4862670898438	541.4966430664062	889.562744140625	373.7062683105469	604.1522216796875	865.10986328125	454.2511291503906	593.1361694335938	815.3934326171875	281.39013671875	148.30078125	1055.41796875	149.6461334228516	308.6967468261719	1018.198059082031	269.1369934082031	489.056884765625	1043.8349609375	264.3723449707031	130.4749298095703	903.0956420898438	379.7405395507812	174.8355407714844	638.4540405273438	428.3412780761719	179.2039794921875	670.933349609375	459.3240661621094	219.30908203125	577.3900146484375	398.0032653808594	199.3351135253906	562.0419921875	420.4280700683594	203.5163879394531	342.3439025878906	472.7972717285156	229.9099884033203	326.3721008300781	470.7832946777344	250.0214385986328	242.1132507324219	410.5286865234375	226.6152496337891	243.1797180175781	364.6385192871094	312.1557922363281	39.53374481201172	532.9600830078125	239.4051971435547	21.00286102294922	579.5747680664062	343.5263671875	32.05130004882812	219.2097625732422	491.6352233886719	928.5691528320312	269.3919372558594	504.24951171875	638.6885375976562	217.4950866699219	508.7559814453125	667.0740966796875	193.0250396728516	489.1749572753906	565.0278930664062	256.8101196289062	491.035888671875	558.5555419921875	68.574462890625	476.7122192382812	340.4176330566406	14.15743827819824	476.6899108886719	367.4125366210938	-49.00916290283203	456.0738830566406	309.8556823730469	-0.516690194606781	451.1868896484375	267.8254089355469	-195.5202178955078	384.7696228027344	226.7055358886719	-153.2563781738281	395.3025207519531	44.31946563720703	-112.5949478149414	302.0068054199219	61.41683578491211	
43	0.168	389.0601196289062	297.0624084472656	1717.8232421875	329.1145935058594	222.0839996337891	1666.772338867188	330.8473205566406	369.4139404296875	1671.969482421875	193.4676666259766	306.2035827636719	1497.089111328125	122.0190963745117	251.4939117431641	1297.25048828125	128.9637145996094	390.0694885253906	1306.257568359375	373.0242309570312	303.0444641113281	1337.904296875	264.4756774902344	133.3140716552734	1442.30908203125	222.8347625732422	48.84001541137695	1279.95458984375	282.9008178710938	45.44458770751953	1193.64990234375	161.3963775634766	40.54270172119141	1197.050537109375	209.0157928466797	35.05533981323242	1090.824096679688	181.0876312255859	113.8792953491211	1090.135131835938	300.0694885253906	39.72046279907227	902.4984741210938	332.6259460449219	84.63256072998047	834.5567626953125	266.3126525878906	41.07826232910156	815.8687133789062	330.6306457519531	31.22773551940918	744.4434814453125	282.7806091308594	471.5578918457031	1461.890258789062	265.9595031738281	573.37841796875	1298.255249023438	328.1881103515625	575.7024536132812	1218.22021484375	206.9551239013672	598.0579223632812	1220.734375	269.510498046875	609.611572265625	1116.626953125	216.9077911376953	554.1868896484375	1109.992553710938	386.2466125488281	593.2222290039062	947.6494750976562	423.2781982421875	542.0986938476562	889.5044555664062	377.4111022949219	604.2042236328125	865.5276489257812	457.4922180175781	594.6727294921875	815.1801147460938	287.127197265625	148.2600860595703	1055.96923828125	154.5478820800781	309.54248046875	1018.957763671875	274.8143310546875	488.7794494628906	1044.90087890625	270.3482971191406	130.3330688476562	903.264892578125	383.6842651367188	173.4387054443359	639.0607299804688	432.5818786621094	178.7225341796875	671.0773315429688	462.7970275878906	219.443359375	577.0897216796875	401.5317687988281	199.4546356201172	562.2041625976562	422.0683288574219	203.6831665039062	342.2474975585938	474.4696655273438	229.8427581787109	325.9223327636719	472.078857421875	250.1228179931641	241.6369323730469	411.6643676757812	226.8880767822266	243.1026611328125	364.7081298828125	312.2520446777344	39.62580871582031	533.027587890625	239.3798217773438	20.9638729095459	579.849365234375	343.8302001953125	31.71414184570312	225.2421569824219	491.7148132324219	928.7400512695312	278.349609375	505.2474670410156	639.1002197265625	226.2969970703125	509.8299865722656	666.6923828125	202.9308319091797	490.3507385253906	564.580810546875	266.7283020019531	492.5878601074219	559.0861206054688	78.54164886474609	478.1887512207031	341.1317749023438	24.37833786010742	478.5775756835938	368.64306640625	-39.43392944335938	457.6556701660156	311.7855529785156	8.540487289428711	452.8450622558594	269.4436340332031	-186.14306640625	387.37744140625	231.2792358398438	-148.3972625732422	397.302734375	47.88016128540039	-107.6452484130859	304.1546936035156	63.80401229858398	
44	0.172	394.7468872070312	296.932861328125	1718.780639648438	334.808349609375	221.8029327392578	1667.52099609375	336.3251037597656	369.2746276855469	1672.77490234375	199.1725158691406	305.6943359375	1497.798950195312	128.5851135253906	250.3654479980469	1297.604614257812	134.5417938232422	390.1702880859375	1307.042236328125	378.8076782226562	303.0038757324219	1338.675415039062	270.6344604492188	133.0987243652344	1443.079345703125	229.4405670166016	48.40286254882812	1280.600341796875	289.4946594238281	45.43867492675781	1194.365844726562	168.0838317871094	39.89315414428711	1197.707153320312	216.4119262695312	34.56616592407227	1091.252685546875	187.6879577636719	113.360481262207	1090.77978515625	307.5097351074219	39.9882926940918	903.3145751953125	339.9066467285156	85.38590240478516	835.5137329101562	274.0086059570312	41.44372177124023	816.6040649414062	338.548828125	32.0066032409668	745.0966796875	288.1260070800781	471.5426025390625	1462.634155273438	271.0862121582031	573.2108154296875	1299.057739257812	333.1791381835938	575.7415161132812	1218.792114257812	211.7781829833984	597.9296264648438	1221.685302734375	274.2770080566406	609.4583129882812	1117.377197265625	221.5585174560547	554.1097412109375	1110.774291992188	389.7655639648438	594.1611328125	948.0372314453125	427.0889892578125	542.478759765625	889.2644653320312	381.0075073242188	605.4403686523438	865.9820556640625	460.6142883300781	595.0368041992188	814.7791137695312	292.9686584472656	148.0651397705078	1056.501586914062	160.453369140625	309.4846496582031	1019.687316894531	280.4855651855469	488.5040893554688	1045.615966796875	272.77587890625	129.9914855957031	903.9776611328125	387.5473937988281	173.3774566650391	639.3648071289062	436.8629455566406	178.2421875	670.8107299804688	466.2343139648438	219.3846588134766	576.7183227539062	404.8775939941406	199.4317016601562	562.2909545898438	423.5325622558594	204.0462493896484	342.1663513183594	476.0129089355469	229.7291107177734	325.3917846679688	473.1177673339844	250.1477813720703	241.2737274169922	412.6061401367188	227.2484893798828	243.0322265625	364.7530822753906	312.3721008300781	39.75717163085938	533.0588989257812	239.2773284912109	20.85758590698242	580.1002197265625	343.9351806640625	31.50100326538086	231.3885955810547	491.6993713378906	928.8240966796875	287.6192321777344	506.1261291503906	639.4570922851562	235.0696411132812	510.573486328125	666.5908203125	212.8278503417969	491.8909606933594	564.6015625	276.3698120117188	493.5479736328125	558.8436279296875	88.58094787597656	479.7132873535156	341.9308471679688	34.63825225830078	480.5653076171875	370.0820922851562	-29.8944206237793	459.9480895996094	313.9713745117188	17.72274208068848	454.5310668945312	271.140380859375	-176.6544494628906	389.6155395507812	235.8206329345703	-143.6094207763672	399.3809204101562	51.53330230712891	-101.8805847167969	306.6011047363281	66.00230407714844	
